<svg width="10" height="10" viewBox="0 0 52 52" fill="none" xmlns="http://www.w3.org/2000/svg">
<path d="M5.14286 0.57143H10.2857V5.71428H5.14286V0.57143ZM0 0.57143H5.14286V5.71428H0V0.57143ZM0 5.71428H5.14286V10.8571H0V5.71428ZM0 10.8571H5.14286V16H0V10.8571ZM0 16H5.14286V21.1429H0V16ZM0 21.1429H5.14286V26.2857H0V21.1429ZM0 26.2857H5.14286V31.4286H0V26.2857ZM0 31.4286H5.14286V36.5714H0V31.4286ZM0 36.5714H5.14286V41.7143H0V36.5714ZM0 41.7143H5.14286V46.8571H0V41.7143ZM0 46.8571H5.14286V52H0V46.8571ZM5.14286 46.8571H10.2857V52H5.14286V46.8571ZM5.14286 41.7143H10.2857V46.8571H5.14286V41.7143ZM5.14286 36.5714H10.2857V41.7143H5.14286V36.5714ZM5.14286 31.4286H10.2857V36.5714H5.14286V31.4286ZM5.14286 26.2857H10.2857V31.4286H5.14286V26.2857ZM5.14286 21.1429H10.2857V26.2857H5.14286V21.1429ZM5.14286 16H10.2857V21.1429H5.14286V16ZM5.14286 10.8571H10.2857V16H5.14286V10.8571ZM5.14286 5.71428H10.2857V10.8571H5.14286V5.71428ZM10.2857 26.2857H15.4286V31.4286H10.2857V26.2857ZM15.4286 26.2857H20.5714V31.4286H15.4286V26.2857ZM15.4286 21.1429H20.5714V26.2857H15.4286V21.1429ZM10.2857 21.1429H15.4286V26.2857H10.2857V21.1429ZM15.4286 16H20.5714V21.1429H15.4286V16ZM20.5714 16H25.7143V21.1429H20.5714V16ZM20.5714 10.8571H25.7143V16H20.5714V10.8571ZM20.5714 5.71428H25.7143V10.8571H20.5714V5.71428ZM20.5714 0.57143H25.7143V5.71428H20.5714V0.57143ZM25.7143 0.57143H30.8571V5.71428H25.7143V0.57143ZM25.7143 5.71428H30.8571V10.8571H25.7143V5.71428ZM25.7143 10.8571H30.8571V16H25.7143V10.8571ZM15.4286 31.4286H20.5714V36.5714H15.4286V31.4286ZM20.5714 31.4286H25.7143V36.5714H20.5714V31.4286ZM20.5714 36.5714H25.7143V41.7143H20.5714V36.5714ZM20.5714 41.7143H25.7143V46.8571H20.5714V41.7143ZM20.5714 46.8571H25.7143V52H20.5714V46.8571ZM25.7143 46.8571H30.8571V52H25.7143V46.8571ZM25.7143 41.7143H30.8571V46.8571H25.7143V41.7143ZM25.7143 36.5714H30.8571V41.7143H25.7143V36.5714ZM25.7143 31.4286H30.8571V36.5714H25.7143V31.4286ZM20.5714 26.2857H25.7143V31.4286H20.5714V26.2857Z" fill="#423872"/>
</svg>